<?xml version="1.0" encoding="iso-8859-1"?>
<!-- Generator: Adobe Illustrator 15.1.0, SVG Export Plug-In . SVG Version: 6.00 Build 0)  -->
<!DOCTYPE svg PUBLIC "-//W3C//DTD SVG 1.1//EN" "http://www.w3.org/Graphics/SVG/1.1/DTD/svg11.dtd">
<svg version="1.1" xmlns="http://www.w3.org/2000/svg" xmlns:xlink="http://www.w3.org/1999/xlink" x="0px" y="0px" width="64px"
	 height="64px" viewBox="0 0 64 64" style="enable-background:new 0 0 64 64;" xml:space="preserve">
<g id="sz-facebook">
	<g>
		<path id="Facebook" d="M26.171,18.521c0,1.108,0,6.058,0,6.058h-4.438v7.407h4.438V54h9.117V31.988h6.119
			c0,0,0.572-3.552,0.85-7.436c-0.796,0-6.935,0-6.935,0s0-4.31,0-5.065c0-0.757,0.995-1.775,1.978-1.775c0.98,0,3.05,0,4.968,0
			c0-1.008,0-4.494,0-7.712c-2.561,0-5.471,0-6.755,0C25.946,10,26.171,17.415,26.171,18.521z"/>
	</g>
</g>
<g id="Layer_1">
</g>
</svg>
