<?xml version="1.0" encoding="iso-8859-1"?>
<!-- Generator: Adobe Illustrator 15.1.0, SVG Export Plug-In . SVG Version: 6.00 Build 0)  -->
<!DOCTYPE svg PUBLIC "-//W3C//DTD SVG 1.1//EN" "http://www.w3.org/Graphics/SVG/1.1/DTD/svg11.dtd">
<svg version="1.1" xmlns="http://www.w3.org/2000/svg" xmlns:xlink="http://www.w3.org/1999/xlink" x="0px" y="0px" width="64px"
	 height="64px" viewBox="0 0 64 64" style="enable-background:new 0 0 64 64;" xml:space="preserve">
<g id="sz-linkedin">
	<path id="LinkedIn" d="M50.838,34.072V48h-8.075V35.005c0-3.266-1.169-5.493-4.091-5.493c-2.231,0-3.559,1.501-4.145,2.954
		c-0.211,0.52-0.267,1.242-0.267,1.968V48h-8.077c0,0,0.108-22.01,0-24.291h8.076v3.443c-0.016,0.025-0.038,0.054-0.053,0.079h0.053
		v-0.079c1.073-1.653,2.99-4.014,7.279-4.014C46.854,23.138,50.838,26.61,50.838,34.072z M17.733,12c-2.763,0-4.57,1.813-4.57,4.196
		c0,2.332,1.755,4.2,4.463,4.2h0.054c2.817,0,4.568-1.867,4.568-4.2C22.196,13.813,20.498,12,17.733,12z M13.642,48h8.075V23.709
		h-8.075V48z"/>
</g>
<g id="Layer_1">
</g>
</svg>
