<?xml version="1.0" encoding="iso-8859-1"?>
<!-- Generator: Adobe Illustrator 15.1.0, SVG Export Plug-In . SVG Version: 6.00 Build 0)  -->
<!DOCTYPE svg PUBLIC "-//W3C//DTD SVG 1.1//EN" "http://www.w3.org/Graphics/SVG/1.1/DTD/svg11.dtd">
<svg version="1.1" xmlns="http://www.w3.org/2000/svg" xmlns:xlink="http://www.w3.org/1999/xlink" x="0px" y="0px" width="64px"
	 height="64px" viewBox="0 0 64 64" style="enable-background:new 0 0 64 64;" xml:space="preserve">
<g id="sz-pinterest">
	<g>
		<path d="M29.999,12.135c-6.645,0.742-13.269,6.118-13.545,13.798c-0.17,4.691,1.162,8.212,5.624,9.202
			c1.936-3.419-0.623-4.17-1.022-6.646c-1.636-10.13,11.685-17.042,18.656-9.968c4.825,4.899,1.649,19.964-6.133,18.399
			c-7.453-1.497,3.65-13.49-2.3-15.845c-4.837-1.915-7.405,5.853-5.114,9.713C24.821,37.425,21.927,43.675,23.098,52
			c3.802-2.759,5.082-8.036,6.133-13.544c1.91,1.159,2.931,2.366,5.368,2.555c8.986,0.694,14.007-8.969,12.778-17.887
			C46.289,15.217,38.402,11.194,29.999,12.135z"/>
	</g>
</g>
<g id="Layer_1">
</g>
</svg>
