<?xml version="1.0" encoding="iso-8859-1"?>
<!-- Generator: Adobe Illustrator 15.1.0, SVG Export Plug-In . SVG Version: 6.00 Build 0)  -->
<!DOCTYPE svg PUBLIC "-//W3C//DTD SVG 1.1//EN" "http://www.w3.org/Graphics/SVG/1.1/DTD/svg11.dtd">
<svg version="1.1" xmlns="http://www.w3.org/2000/svg" xmlns:xlink="http://www.w3.org/1999/xlink" x="0px" y="0px" width="64px"
	 height="64px" viewBox="0 0 64 64" style="enable-background:new 0 0 64 64;" xml:space="preserve">
<g id="sz-twitter">
	<path id="path22" d="M54,18.354c-1.618,0.719-3.358,1.205-5.184,1.423c1.863-1.118,3.294-2.887,3.967-4.994
		c-1.743,1.035-3.674,1.785-5.731,2.189c-1.646-1.754-3.992-2.85-6.589-2.85c-4.985,0-9.025,4.041-9.025,9.026
		c0,0.708,0.079,1.397,0.233,2.058c-7.501-0.376-14.154-3.971-18.606-9.431c-0.777,1.332-1.222,2.882-1.222,4.537
		c0,3.132,1.593,5.895,4.015,7.514c-1.479-0.045-2.872-0.452-4.088-1.128c0,0.038,0,0.076,0,0.113c0,4.375,3.111,8.022,7.24,8.852
		c-0.757,0.205-1.554,0.314-2.377,0.314c-0.582,0-1.147-0.055-1.699-0.16c1.149,3.585,4.482,6.195,8.433,6.269
		c-3.092,2.422-6.984,3.864-11.212,3.864c-0.729,0-1.447-0.043-2.155-0.127c3.997,2.563,8.741,4.056,13.839,4.056
		c16.602,0,25.681-13.755,25.681-25.684c0-0.391-0.009-0.779-0.026-1.166c1.764-1.274,3.296-2.864,4.505-4.675"/>
</g>
<g id="Layer_1">
</g>
</svg>
