<?xml version="1.0" encoding="iso-8859-1"?>
<!-- Generator: Adobe Illustrator 18.0.0, SVG Export Plug-In . SVG Version: 6.00 Build 0)  -->
<!DOCTYPE svg PUBLIC "-//W3C//DTD SVG 1.1//EN" "http://www.w3.org/Graphics/SVG/1.1/DTD/svg11.dtd">
<svg version="1.1" xmlns="http://www.w3.org/2000/svg" xmlns:xlink="http://www.w3.org/1999/xlink" x="0px" y="0px" width="512px"
	 height="512px" viewBox="0 0 512 512" style="enable-background:new 0 0 512 512;" xml:space="preserve">
<g id="sz-facebook">
	<g>
		<path id="Facebook" d="M210.501,129.792c0,10.379,0,56.726,0,56.726h-41.499v69.358h41.499V462h85.244V255.886h57.212
			c0,0,5.351-33.262,7.944-69.624c-7.441,0-64.836,0-64.836,0s0-40.357,0-47.426c0-7.091,9.304-16.624,18.489-16.624
			c9.167,0,28.515,0,46.448,0c0-9.441,0-42.076,0-72.211c-23.941,0-51.15,0-63.157,0
			C208.401,49.995,210.501,119.428,210.501,129.792z"/>
	</g>
</g>
<g id="Capa_1">
</g>
</svg>
