<?xml version="1.0" encoding="iso-8859-1"?>
<!-- Generator: Adobe Illustrator 15.1.0, SVG Export Plug-In . SVG Version: 6.00 Build 0)  -->
<!DOCTYPE svg PUBLIC "-//W3C//DTD SVG 1.1//EN" "http://www.w3.org/Graphics/SVG/1.1/DTD/svg11.dtd">
<svg version="1.1" xmlns="http://www.w3.org/2000/svg" xmlns:xlink="http://www.w3.org/1999/xlink" x="0px" y="0px" width="64px"
	 height="64px" viewBox="0 0 64 64" style="enable-background:new 0 0 64 64;" xml:space="preserve">
<g id="sz-google-plus">
	<polygon points="49.158,29.506 49.158,24.654 45.7,24.654 45.7,29.506 40.718,29.506 40.718,32.971 45.7,32.971 45.7,37.961 
		49.158,37.961 49.158,32.971 54,32.971 54,29.506 	"/>
	<path d="M23.975,29.228v5.544c0,0,5.37-0.006,7.556-0.006c-1.183,3.595-3.026,5.553-7.556,5.553c-4.584,0-8.164-3.725-8.164-8.318
		c0-4.593,3.58-8.317,8.164-8.317c2.423,0,3.991,0.854,5.426,2.043c1.149-1.151,1.055-1.315,3.978-4.083
		C30.897,19.38,27.597,18,23.975,18C16.257,18,10,24.268,10,32c0,7.732,6.257,14,13.975,14c11.536,0,14.356-10.063,13.422-16.772
		H23.975z"/>
</g>
<g id="Layer_1">
</g>
</svg>
