<?xml version="1.0" encoding="iso-8859-1"?>
<!-- Generator: Adobe Illustrator 18.0.0, SVG Export Plug-In . SVG Version: 6.00 Build 0)  -->
<!DOCTYPE svg PUBLIC "-//W3C//DTD SVG 1.1//EN" "http://www.w3.org/Graphics/SVG/1.1/DTD/svg11.dtd">
<svg version="1.1" xmlns="http://www.w3.org/2000/svg" xmlns:xlink="http://www.w3.org/1999/xlink" x="0px" y="0px" width="512px"
	 height="512px" viewBox="0 0 512 512" style="enable-background:new 0 0 512 512;" xml:space="preserve">
<g id="sz-google-plus">
	<g>
		<polygon points="417,233 417,187 385,187 385,233 338,233 338,265 385,265 385,312 417,312 417,265 463,265 463,233 		"/>
		<path d="M180,230v52.124c0,0,50.773-0.056,71.342-0.056c-11.132,33.885-28.353,52.341-70.973,52.341
			c-43.131,0-76.755-35.109-76.755-78.41c0-43.292,33.716-78.396,76.847-78.396c22.801,0,37.569,8.045,51.067,19.262
			c10.815-10.853,9.931-12.4,37.432-38.483c-23.343-21.342-54.391-34.349-88.472-34.349c-72.612,0-131.485,59.084-131.485,131.966
			c0,72.887,58.876,132.033,131.488,132.033C289.033,388.033,315.571,293,306.778,230H180z"/>
	</g>
</g>
<g id="Capa_1">
</g>
</svg>
