<svg xmlns="http://www.w3.org/2000/svg" width="64" height="64" viewBox="0 0 64 64"><path d="M50.49 13.51C49.484 12.505 48.277 12 46.87 12H17.13c-1.407 0-2.613.504-3.62 1.51-1.006 1.01-1.51 2.215-1.51 3.62v29.74c0 1.404.503 2.613 1.51 3.62 1.01 1.006 2.216 1.51 3.62 1.51h29.74c1.404 0 2.612-.503 3.62-1.51 1.007-1.007 1.51-2.216 1.51-3.62V17.13c0-1.406-.503-2.612-1.51-3.62zM26.364 26.415c1.57-1.52 3.46-2.28 5.664-2.28 2.222 0 4.12.76 5.69 2.28s2.355 3.355 2.355 5.507c0 2.155-.784 3.99-2.355 5.51-1.57 1.52-3.467 2.28-5.69 2.28-2.205 0-4.093-.762-5.664-2.28-1.572-1.52-2.356-3.355-2.356-5.51 0-2.15.784-3.987 2.356-5.506zm21.107 19.39a1.5 1.5 0 0 1-.47 1.132 1.554 1.554 0 0 1-1.11.454H18.05c-.45 0-.83-.15-1.134-.45a1.54 1.54 0 0 1-.455-1.13V28.93h3.67a11.244 11.244 0 0 0-.52 3.41c0 3.336 1.217 6.18 3.646 8.532 2.43 2.35 5.356 3.53 8.776 3.53 2.256 0 4.338-.54 6.25-1.617a12.123 12.123 0 0 0 4.53-4.39c1.11-1.845 1.668-3.864 1.668-6.05 0-1.18-.176-2.318-.522-3.41h3.517V45.81zm0-23.258c0 .503-.17.93-.52 1.276a1.73 1.73 0 0 1-1.27.52h-4.54c-.5 0-.925-.172-1.27-.52a1.734 1.734 0 0 1-.52-1.276V18.25c0-.486.17-.907.52-1.263a1.716 1.716 0 0 1 1.273-.535h4.534c.503 0 .928.18 1.274.535.35.356.523.777.523 1.263v4.296z"/></svg>