<?xml version="1.0" encoding="iso-8859-1"?>
<!-- Generator: Adobe Illustrator 18.0.0, SVG Export Plug-In . SVG Version: 6.00 Build 0)  -->
<!DOCTYPE svg PUBLIC "-//W3C//DTD SVG 1.1//EN" "http://www.w3.org/Graphics/SVG/1.1/DTD/svg11.dtd">
<svg version="1.1" xmlns="http://www.w3.org/2000/svg" xmlns:xlink="http://www.w3.org/1999/xlink" x="0px" y="0px" width="512px"
	 height="512px" viewBox="0 0 512 512" style="enable-background:new 0 0 512 512;" xml:space="preserve">
<g id="sz-instagram">
	<path d="M429.819,82.201C420.346,72.737,409,68,395.781,68H116.228c-13.229,0-24.56,4.737-34.02,14.201
		c-9.473,9.465-14.205,20.801-14.205,34.02V395.77c0,13.21,4.732,24.574,14.205,34.03c9.46,9.473,20.811,14.201,34.02,14.201
		h279.553c13.2,0,24.556-4.727,34.029-14.201c9.465-9.455,14.192-20.82,14.192-34.03V116.221
		C444.002,103.002,439.275,91.665,429.819,82.201z M203.012,203.488c14.761-14.28,32.519-21.421,53.243-21.421
		c20.888,0,38.715,7.141,53.485,21.421c14.77,14.279,22.142,31.541,22.142,51.769c0,20.25-7.371,37.508-22.142,51.773
		c-14.77,14.283-32.588,21.444-53.485,21.444c-20.723,0-38.472-7.161-53.243-21.444c-14.775-14.274-22.151-31.523-22.151-51.773
		C180.861,235.029,188.238,217.766,203.012,203.488z M401.417,385.745c0,4.232-1.468,7.776-4.415,10.648
		c-2.947,2.846-6.453,4.269-10.511,4.269H124.792c-4.232,0-7.779-1.422-10.648-4.269c-2.855-2.855-4.273-6.416-4.273-10.648V227.107
		h34.506c-3.254,10.281-4.888,20.975-4.888,32.064c0,31.354,11.424,58.066,34.254,80.19c22.866,22.104,50.364,33.175,82.512,33.175
		c21.209,0,40.78-5.068,58.754-15.192c17.956-10.116,32.139-23.877,42.575-41.263c10.456-17.368,15.689-36.352,15.689-56.909
		c0-11.089-1.653-21.784-4.911-32.064h33.056V385.745L401.417,385.745L401.417,385.745z M401.417,167.136
		c0,4.732-1.624,8.73-4.911,11.998c-3.259,3.263-7.252,4.893-11.979,4.893h-42.613c-4.718,0-8.72-1.63-11.979-4.893
		c-3.267-3.268-4.893-7.266-4.893-11.998V126.75c0-4.567,1.625-8.523,4.893-11.874c3.259-3.342,7.262-5.026,11.979-5.026h42.613
		c4.727,0,8.72,1.684,11.979,5.026c3.286,3.351,4.911,7.308,4.911,11.874V167.136z"/>
</g>
<g id="Capa_1">
</g>
</svg>
