<?xml version="1.0" encoding="iso-8859-1"?>
<!-- Generator: Adobe Illustrator 15.1.0, SVG Export Plug-In . SVG Version: 6.00 Build 0)  -->
<!DOCTYPE svg PUBLIC "-//W3C//DTD SVG 1.1//EN" "http://www.w3.org/Graphics/SVG/1.1/DTD/svg11.dtd">
<svg version="1.1" xmlns="http://www.w3.org/2000/svg" xmlns:xlink="http://www.w3.org/1999/xlink" x="0px" y="0px" width="64px"
	 height="64px" viewBox="0 0 64 64" style="enable-background:new 0 0 64 64;" xml:space="preserve">
<g id="sz-instagram">
	<path d="M50.491,13.511C49.483,12.504,48.276,12,46.87,12H17.13c-1.407,0-2.613,0.504-3.619,1.511
		C12.503,14.518,12,15.724,12,17.13v29.739c0,1.405,0.503,2.614,1.511,3.62C14.518,51.497,15.725,52,17.13,52h29.74
		c1.404,0,2.612-0.503,3.62-1.511c1.007-1.006,1.51-2.215,1.51-3.62V17.13C52,15.724,51.497,14.518,50.491,13.511z M26.363,26.414
		c1.57-1.519,3.459-2.279,5.664-2.279c2.222,0,4.119,0.76,5.69,2.279s2.355,3.355,2.355,5.507c0,2.154-0.784,3.99-2.355,5.508
		c-1.571,1.52-3.467,2.281-5.69,2.281c-2.205,0-4.093-0.762-5.664-2.281c-1.572-1.519-2.356-3.354-2.356-5.508
		C24.006,29.769,24.791,27.933,26.363,26.414z M47.47,45.803c0,0.45-0.156,0.827-0.47,1.133c-0.313,0.303-0.687,0.454-1.118,0.454
		h-27.84c-0.45,0-0.828-0.151-1.133-0.454c-0.304-0.304-0.455-0.683-0.455-1.133V28.926h3.671c-0.346,1.094-0.52,2.231-0.52,3.411
		c0,3.335,1.215,6.177,3.644,8.531c2.433,2.352,5.358,3.529,8.778,3.529c2.256,0,4.338-0.539,6.25-1.616
		c1.91-1.076,3.419-2.54,4.529-4.39c1.112-1.848,1.669-3.867,1.669-6.054c0-1.18-0.176-2.317-0.522-3.411h3.517V45.803L47.47,45.803
		L47.47,45.803z M47.47,22.546c0,0.503-0.173,0.929-0.522,1.276c-0.347,0.347-0.771,0.521-1.274,0.521H41.14
		c-0.502,0-0.928-0.173-1.274-0.521c-0.348-0.348-0.521-0.773-0.521-1.276V18.25c0-0.486,0.173-0.907,0.521-1.263
		c0.347-0.355,0.772-0.535,1.274-0.535h4.533c0.503,0,0.928,0.179,1.274,0.535c0.35,0.356,0.522,0.777,0.522,1.263V22.546z"/>
</g>
<g id="Layer_1">
</g>
</svg>
