<?xml version="1.0" encoding="iso-8859-1"?>
<!-- Generator: Adobe Illustrator 18.0.0, SVG Export Plug-In . SVG Version: 6.00 Build 0)  -->
<!DOCTYPE svg PUBLIC "-//W3C//DTD SVG 1.1//EN" "http://www.w3.org/Graphics/SVG/1.1/DTD/svg11.dtd">
<svg version="1.1" xmlns="http://www.w3.org/2000/svg" xmlns:xlink="http://www.w3.org/1999/xlink" x="0px" y="0px" width="512px"
	 height="512px" viewBox="0 0 512 512" style="enable-background:new 0 0 512 512;" xml:space="preserve">
<g id="sz-linkedin">
	<path id="LinkedIn" d="M433.007,276.234V407h-75.876V284.99c0-30.66-10.984-51.575-38.438-51.575
		c-20.968,0-33.437,14.097-38.944,27.731c-1.982,4.878-2.505,11.658-2.505,18.48V407H201.35c0,0,1.019-206.648,0-228.066h75.886
		v32.329c-0.148,0.238-0.358,0.505-0.496,0.739h0.496v-0.739c10.084-15.518,28.096-37.688,68.398-37.688
		C395.569,173.575,433.007,206.171,433.007,276.234z M121.95,69c-25.964,0-42.943,17.017-42.943,39.394
		c0,21.895,16.489,39.431,41.939,39.431h0.509c26.468,0,42.925-17.531,42.925-39.431C163.88,86.017,147.923,69,121.95,69z
		 M83.508,407h75.876V178.934H83.508V407z"/>
</g>
<g id="Capa_1">
</g>
</svg>
