<svg xmlns="http://www.w3.org/2000/svg" width="512" height="512" viewBox="0 0 512 512"><path d="M433.007 276.234V407H357.13V284.99c0-30.66-10.983-51.575-38.437-51.575-20.968 0-33.437 14.097-38.944 27.73-1.986 4.88-2.51 11.66-2.51 18.48V407h-75.89s1.02-206.648 0-228.066h75.886v32.33c-.148.237-.358.504-.496.738h.496v-.74c10.084-15.517 28.096-37.687 68.398-37.687 49.935 0 87.373 32.596 87.373 102.66zM121.95 69c-25.964 0-42.943 17.017-42.943 39.394 0 21.895 16.49 39.43 41.94 39.43h.508c26.468 0 42.925-17.53 42.925-39.43C163.88 86.017 147.923 69 121.95 69zM83.508 407h75.876V178.934H83.508V407z"/></svg>