<?xml version="1.0" encoding="iso-8859-1"?>
<!-- Generator: Adobe Illustrator 18.0.0, SVG Export Plug-In . SVG Version: 6.00 Build 0)  -->
<!DOCTYPE svg PUBLIC "-//W3C//DTD SVG 1.1//EN" "http://www.w3.org/Graphics/SVG/1.1/DTD/svg11.dtd">
<svg version="1.1" xmlns="http://www.w3.org/2000/svg" xmlns:xlink="http://www.w3.org/1999/xlink" x="0px" y="0px" width="512px"
	 height="512px" viewBox="0 0 512 512" style="enable-background:new 0 0 512 512;" xml:space="preserve">
<g id="sz-print">
	<path d="M152,74h208v52H152V74z M438,152H74c-14.295,0-26,11.705-26,26v130c0,14.3,11.705,26,26,26h78v104h208V334h78
		c14.3,0,26-11.7,26-26V178C464,163.705,452.3,152,438,152z M334,412H178V282h156V412z M443.85,191.005
		c0,10.405-8.45,18.845-18.85,18.845c-10.41,0-18.85-8.44-18.85-18.845c0-10.416,8.44-18.85,18.85-18.85
		S443.85,180.59,443.85,191.005z"/>
</g>
<g id="Capa_1">
</g>
</svg>
