<?xml version="1.0" encoding="iso-8859-1"?>
<!-- Generator: Adobe Illustrator 15.1.0, SVG Export Plug-In . SVG Version: 6.00 Build 0)  -->
<!DOCTYPE svg PUBLIC "-//W3C//DTD SVG 1.1//EN" "http://www.w3.org/Graphics/SVG/1.1/DTD/svg11.dtd">
<svg version="1.1" xmlns="http://www.w3.org/2000/svg" xmlns:xlink="http://www.w3.org/1999/xlink" x="0px" y="0px" width="64px"
	 height="64px" viewBox="0 0 64 64" style="enable-background:new 0 0 64 64;" xml:space="preserve">
<g id="sz-print">
	<g>
		<path d="M22,14.5h20v5H22V14.5z M49.5,22h-35c-1.375,0-2.5,1.125-2.5,2.5V37c0,1.375,1.125,2.5,2.5,2.5H22v10h20v-10h7.5
			c1.375,0,2.5-1.125,2.5-2.5V24.5C52,23.125,50.875,22,49.5,22z M39.5,47h-15V34.5h15V47z M50.063,25.75
			c0,1-0.813,1.812-1.813,1.812c-1.001,0-1.813-0.812-1.813-1.812c0-1.001,0.812-1.813,1.813-1.813S50.063,24.749,50.063,25.75z"/>
	</g>
</g>
<g id="Layer_1">
</g>
</svg>
