<?xml version="1.0" encoding="iso-8859-1"?>
<!-- Generator: Adobe Illustrator 18.0.0, SVG Export Plug-In . SVG Version: 6.00 Build 0)  -->
<!DOCTYPE svg PUBLIC "-//W3C//DTD SVG 1.1//EN" "http://www.w3.org/Graphics/SVG/1.1/DTD/svg11.dtd">
<svg version="1.1" xmlns="http://www.w3.org/2000/svg" xmlns:xlink="http://www.w3.org/1999/xlink" x="0px" y="0px" width="512px"
	 height="512px" viewBox="0 0 512 512" style="enable-background:new 0 0 512 512;" xml:space="preserve">
<g id="sz-pinterest">
	<g>
		<path d="M237.227,69.267c-62.348,6.972-124.495,57.506-127.093,129.704c-1.599,44.099,10.899,77.197,52.764,86.496
			c18.166-32.143-5.845-39.198-9.588-62.468c-15.353-95.221,109.637-160.195,175.042-93.702
			c45.274,46.054,15.477,187.666-57.542,172.95c-69.926-14.072,34.251-126.808-21.578-148.941
			c-45.388-17.997-69.477,55.014-47.981,91.301C188.646,306.993,161.488,365.743,172.478,444
			c35.671-25.933,47.684-75.54,57.543-127.313c17.917,10.896,27.502,22.242,50.363,24.013
			c84.317,6.527,131.423-84.311,119.896-168.135C390.073,98.242,316.073,60.421,237.227,69.267z"/>
	</g>
</g>
<g id="Capa_1">
</g>
</svg>
