<svg xmlns="http://www.w3.org/2000/svg" width="64" height="64" viewBox="0 0 64 64"><path d="M30 12.135c-6.646.742-13.27 6.118-13.546 13.798-.17 4.69 1.162 8.212 5.624 9.202 1.936-3.42-.623-4.17-1.022-6.646-1.636-10.13 11.684-17.05 18.656-9.97 4.825 4.9 1.65 19.96-6.133 18.4-7.46-1.5 3.65-13.49-2.3-15.85-4.84-1.917-7.41 5.85-5.12 9.71-1.346 6.64-4.24 12.89-3.068 21.215 3.802-2.76 5.082-8.037 6.133-13.545 1.91 1.16 2.933 2.367 5.37 2.556 8.986.697 14.007-8.966 12.78-17.884-1.09-7.907-8.977-11.93-17.38-10.99z"/></svg>