<svg xmlns="http://www.w3.org/2000/svg" width="512" height="512" viewBox="0 0 512 512"><path d="M237.227 69.267C174.88 76.24 112.732 126.773 110.134 198.97c-1.6 44.1 10.9 77.198 52.764 86.497 18.166-32.143-5.845-39.198-9.588-62.468-15.353-95.225 109.637-160.2 175.042-93.706 45.274 46.054 15.477 187.666-57.542 172.95-69.926-14.072 34.25-126.808-21.578-148.94-45.388-17.998-69.477 55.013-47.98 91.3-12.606 62.386-39.764 121.136-28.774 199.393 35.67-25.934 47.684-75.54 57.543-127.314 17.92 10.896 27.506 22.242 50.367 24.013 84.317 6.526 131.423-84.31 119.896-168.136C390.075 98.242 316.075 60.42 237.23 69.267z"/></svg>