<?xml version="1.0" encoding="iso-8859-1"?>
<!-- Generator: Adobe Illustrator 15.1.0, SVG Export Plug-In . SVG Version: 6.00 Build 0)  -->
<!DOCTYPE svg PUBLIC "-//W3C//DTD SVG 1.1//EN" "http://www.w3.org/Graphics/SVG/1.1/DTD/svg11.dtd">
<svg version="1.1" xmlns="http://www.w3.org/2000/svg" xmlns:xlink="http://www.w3.org/1999/xlink" x="0px" y="0px" width="64px"
	 height="64px" viewBox="0 0 64 64" style="enable-background:new 0 0 64 64;" xml:space="preserve">
<g id="sz-share">
	<path d="M41.779,38.638c-1.648,0-3.207,0.668-4.32,1.692l-10.825-6.682c0.135-0.535,0.268-1.069,0.268-1.604
		c0-0.624-0.133-1.159-0.268-1.647l10.825-6.638c1.158,0.98,2.718,1.604,4.32,1.604c3.697,0,6.727-2.984,6.727-6.682
		c0-3.653-2.984-6.681-6.727-6.681c-3.652,0-6.681,2.984-6.681,6.681c0,0.535,0.045,1.114,0.267,1.56l-10.824,6.725
		c-1.159-0.979-2.762-1.648-4.366-1.648c-3.652,0-6.681,2.984-6.681,6.727c0,3.653,2.984,6.592,6.681,6.592
		c1.604,0,3.207-0.58,4.366-1.56l10.824,6.638c-0.222,0.49-0.267,1.024-0.267,1.604c0,3.652,2.984,6.682,6.681,6.682
		c3.697,0,6.727-2.985,6.727-6.682S45.521,38.638,41.779,38.638z"/>
</g>
<g id="Layer_1">
</g>
</svg>
