<svg xmlns="http://www.w3.org/2000/svg" width="512" height="512" viewBox="0 0 512 512"><path d="M358.067 325.032c-17.138 0-33.342 6.947-44.916 17.6l-112.54-69.49c1.4-5.564 2.787-11.115 2.787-16.68 0-6.485-1.386-12.05-2.787-17.134l112.54-69.038c12.042 10.198 28.257 16.683 44.917 16.683 38.44 0 69.933-31.033 69.933-69.49C428 79.493 396.973 48 358.067 48c-37.97 0-69.456 31.033-69.456 69.484 0 5.56.47 11.582 2.776 16.22l-112.534 69.94c-12.046-10.187-28.717-17.138-45.39-17.138-37.97 0-69.46 31.037-69.46 69.956 0 37.99 31.023 68.56 69.46 68.56 16.678 0 33.344-6.033 45.39-16.22l112.534 69.032c-2.304 5.1-2.772 10.655-2.772 16.677 0 37.988 31.03 69.49 69.458 69.49 38.44 0 69.933-31.045 69.933-69.49 0-38.44-31.026-69.475-69.932-69.475z"/></svg>