<?xml version="1.0" encoding="iso-8859-1"?>
<!-- Generator: Adobe Illustrator 18.0.0, SVG Export Plug-In . SVG Version: 6.00 Build 0)  -->
<!DOCTYPE svg PUBLIC "-//W3C//DTD SVG 1.1//EN" "http://www.w3.org/Graphics/SVG/1.1/DTD/svg11.dtd">
<svg version="1.1" xmlns="http://www.w3.org/2000/svg" xmlns:xlink="http://www.w3.org/1999/xlink" x="0px" y="0px" width="512px"
	 height="512px" viewBox="0 0 512 512" style="enable-background:new 0 0 512 512;" xml:space="preserve">
<g id="sz-share">
	<path d="M358.067,325.032c-17.138,0-33.342,6.947-44.916,17.601l-112.544-69.49c1.401-5.565,2.787-11.116,2.787-16.682
		c0-6.484-1.386-12.05-2.787-17.133l112.544-69.037c12.041,10.197,28.256,16.682,44.916,16.682
		c38.439,0,69.933-31.033,69.933-69.489C428,79.494,396.973,48,358.067,48c-37.971,0-69.456,31.033-69.456,69.484
		c0,5.56,0.468,11.582,2.772,16.219l-112.534,69.941c-12.046-10.187-28.717-17.138-45.388-17.138
		C95.489,186.506,64,217.543,64,256.462c0,37.99,31.022,68.56,69.461,68.56c16.676,0,33.342-6.033,45.388-16.22l112.534,69.032
		c-2.304,5.099-2.772,10.655-2.772,16.677c0,37.984,31.027,69.489,69.456,69.489C396.506,464,428,432.952,428,394.511
		C428,356.07,396.973,325.032,358.067,325.032z"/>
</g>
<g id="Capa_1">
</g>
</svg>
