<svg xmlns="http://www.w3.org/2000/svg" width="512" height="512" viewBox="0 0 512 512"><path d="M463 127.763c-15.226 6.755-31.6 11.32-48.772 13.37 17.532-10.502 30.993-27.126 37.324-46.925a169.87 169.87 0 0 1-53.927 20.575C382.14 98.3 360.062 88 335.63 88c-46.91 0-84.92 37.974-84.92 84.82 0 6.654.74 13.13 2.195 19.337-70.582-3.533-133.173-37.313-175.064-88.626-7.305 12.52-11.49 27.09-11.49 42.635 0 29.434 14.986 55.392 37.778 70.607a84.472 84.472 0 0 1-38.468-10.604c-.006.353-.006.71-.006 1.065 0 41.11 29.27 75.383 68.124 83.184a85.55 85.55 0 0 1-22.37 2.955c-5.476 0-10.79-.515-15.983-1.506 10.81 33.69 42.17 58.218 79.347 58.907-29.094 22.76-65.71 36.313-105.496 36.313-6.86 0-13.618-.403-20.275-1.192C86.604 409.97 131.246 424 179.21 424c156.208 0 241.633-129.256 241.633-241.35 0-3.676-.083-7.324-.247-10.958a172.43 172.43 0 0 0 42.386-43.93"/></svg>