<svg xmlns="http://www.w3.org/2000/svg" width="64" height="64" viewBox="0 0 64 64"><path d="M54 18.354a17.998 17.998 0 0 1-5.184 1.423 9.055 9.055 0 0 0 3.967-4.994 18.014 18.014 0 0 1-5.73 2.19 9.014 9.014 0 0 0-6.59-2.85 9.025 9.025 0 0 0-9.025 9.025c0 .708.08 1.397.233 2.058-7.5-.376-14.15-3.97-18.6-9.43a8.975 8.975 0 0 0-1.22 4.536 9.023 9.023 0 0 0 4.016 7.514 8.964 8.964 0 0 1-4.09-1.128v.113a9.03 9.03 0 0 0 7.24 8.86 9.083 9.083 0 0 1-4.074.155 9.04 9.04 0 0 0 8.433 6.27 18.118 18.118 0 0 1-11.212 3.863c-.73 0-1.446-.042-2.154-.126a25.545 25.545 0 0 0 13.84 4.056c16.6 0 25.68-13.756 25.68-25.685 0-.39-.01-.78-.025-1.165a18.338 18.338 0 0 0 4.5-4.678"/></svg>