<?xml version="1.0" encoding="iso-8859-1"?>
<!-- Generator: Adobe Illustrator 18.0.0, SVG Export Plug-In . SVG Version: 6.00 Build 0)  -->
<!DOCTYPE svg PUBLIC "-//W3C//DTD SVG 1.1//EN" "http://www.w3.org/Graphics/SVG/1.1/DTD/svg11.dtd">
<svg version="1.1" xmlns="http://www.w3.org/2000/svg" xmlns:xlink="http://www.w3.org/1999/xlink" x="0px" y="0px" width="512px"
	 height="512px" viewBox="0 0 512 512" style="enable-background:new 0 0 512 512;" xml:space="preserve">
<g id="sz-twitter">
	<path id="path22" d="M463,127.763c-15.226,6.755-31.599,11.32-48.772,13.371c17.532-10.503,30.993-27.127,37.324-46.926
		c-16.402,9.723-34.567,16.771-53.927,20.575C382.141,98.301,360.062,88,335.629,88c-46.908,0-84.92,37.974-84.92,84.821
		c0,6.653,0.74,13.128,2.196,19.336c-70.582-3.533-133.173-37.313-175.064-88.626c-7.309,12.517-11.494,27.085-11.494,42.631
		c0,29.434,14.986,55.392,37.778,70.607c-13.921-0.427-27.019-4.249-38.468-10.604c-0.005,0.353-0.005,0.711-0.005,1.065
		c0,41.108,29.27,75.382,68.124,83.183c-7.126,1.927-14.619,2.955-22.37,2.955c-5.476,0-10.791-0.514-15.983-1.505
		c10.81,33.689,42.17,58.218,79.347,58.907c-29.095,22.758-65.711,36.312-105.497,36.312c-6.859,0-13.618-0.403-20.275-1.192
		C86.603,409.969,131.245,424,179.21,424c156.208,0,241.633-129.256,241.633-241.351c0-3.675-0.083-7.323-0.247-10.957
		c16.594-11.971,31.011-26.91,42.386-43.929"/>
</g>
<g id="Capa_1">
</g>
</svg>
