<svg xmlns="http://www.w3.org/2000/svg" width="64" height="64" viewBox="0 0 64 64"><path d="M51.792 26.666c-.235-2.827-.424-3.745-1.007-4.923-.77-1.56-1.888-2.384-3.477-2.565-1.23-.14-5.853-.337-10.133-.432-7.407-.165-19.586.152-21.142.55-.718.184-1.258.497-1.82 1.054-.982.98-1.568 2.382-1.803 4.323-.537 4.43-.55 9.785-.03 14.377.222 1.975.68 3.26 1.542 4.316.538.66 1.464 1.22 2.292 1.388.583.117 3.492.28 7.73.434.632.02 2.304.06 3.716.087 2.943.052 8.355.02 11.448-.065 2.08-.06 5.875-.213 6.585-.268.2-.016.662-.045 1.027-.065 1.228-.07 2.01-.327 2.742-.903.95-.746 1.685-2.124 1.995-3.74.295-1.53.492-4.255.53-7.348.036-2.586-.008-3.98-.195-6.22zM26.824 37.748V26.253L37.176 32l-10.352 5.748z"/></svg>