<?xml version="1.0" encoding="iso-8859-1"?>
<!-- Generator: Adobe Illustrator 18.0.0, SVG Export Plug-In . SVG Version: 6.00 Build 0)  -->
<!DOCTYPE svg PUBLIC "-//W3C//DTD SVG 1.1//EN" "http://www.w3.org/Graphics/SVG/1.1/DTD/svg11.dtd">
<svg version="1.1" xmlns="http://www.w3.org/2000/svg" xmlns:xlink="http://www.w3.org/1999/xlink" x="0px" y="0px" width="512px"
	 height="512px" viewBox="0 0 512 512" style="enable-background:new 0 0 512 512;" xml:space="preserve">
<g id="sz-youtube">
	<path id="path9-3" d="M442.047,205.862c-2.213-26.572-3.984-35.2-9.464-46.274c-7.252-14.672-17.744-22.405-32.68-24.108
		c-11.557-1.317-55.014-3.166-95.249-4.061c-69.628-1.546-184.113,1.428-198.732,5.172c-6.752,1.726-11.823,4.667-17.098,9.908
		c-9.244,9.197-14.747,22.386-16.96,40.629c-5.049,41.647-5.159,91.964-0.289,135.132c2.092,18.559,6.407,30.629,14.503,40.569
		c5.058,6.205,13.761,11.473,21.545,13.043c5.476,1.102,32.822,2.635,72.676,4.075c5.93,0.202,21.65,0.569,34.919,0.817
		c27.668,0.487,78.537,0.193,107.61-0.615c19.561-0.551,55.225-2.001,61.898-2.515c1.873-0.147,6.224-0.422,9.658-0.615
		c11.539-0.652,18.883-3.075,25.777-8.49c8.932-7.012,15.834-19.964,18.754-35.164c2.772-14.374,4.627-39.982,4.985-69.055
		C444.223,240.025,443.801,226.918,442.047,205.862L442.047,205.862z M224.329,201.988L321.639,256l-97.31,54.025V201.988z"/>
</g>
<g id="Capa_1">
</g>
</svg>
