<svg xmlns="http://www.w3.org/2000/svg" width="512" height="512" viewBox="0 0 512 512"><path d="M442.047 205.862c-2.213-26.572-3.984-35.2-9.464-46.274-7.252-14.672-17.744-22.405-32.68-24.108-11.557-1.317-55.014-3.166-95.25-4.06-69.627-1.547-184.112 1.427-198.73 5.17-6.753 1.727-11.824 4.668-17.1 9.91-9.243 9.196-14.746 22.385-16.96 40.628-5.048 41.647-5.158 91.964-.288 135.132 2.092 18.56 6.407 30.63 14.503 40.57 5.058 6.204 13.76 11.472 21.545 13.042 5.476 1.102 32.822 2.635 72.676 4.075 5.93.202 21.65.57 34.915.817 27.668.487 78.537.193 107.61-.615 19.56-.555 55.225-2.005 61.898-2.52 1.873-.146 6.224-.42 9.658-.614 11.54-.653 18.884-3.076 25.778-8.49 8.932-7.013 15.834-19.965 18.754-35.165 2.772-14.373 4.627-39.98 4.985-69.054.322-24.285-.1-37.392-1.854-58.448zm-217.718-3.874L321.64 256l-97.31 54.025V201.988z"/></svg>