<?xml version="1.0" encoding="iso-8859-1"?>
<!-- Generator: Adobe Illustrator 15.1.0, SVG Export Plug-In . SVG Version: 6.00 Build 0)  -->
<!DOCTYPE svg PUBLIC "-//W3C//DTD SVG 1.1//EN" "http://www.w3.org/Graphics/SVG/1.1/DTD/svg11.dtd">
<svg version="1.1" xmlns="http://www.w3.org/2000/svg" xmlns:xlink="http://www.w3.org/1999/xlink" x="0px" y="0px" width="64px"
	 height="64px" viewBox="0 0 64 64" style="enable-background:new 0 0 64 64;" xml:space="preserve">
<g id="sz-youtube">
	<path id="path9-3" d="M51.792,26.666c-0.235-2.827-0.424-3.745-1.007-4.923c-0.771-1.561-1.888-2.384-3.477-2.565
		c-1.229-0.14-5.853-0.337-10.133-0.432c-7.407-0.165-19.586,0.152-21.142,0.55c-0.718,0.184-1.258,0.497-1.819,1.054
		c-0.983,0.979-1.569,2.382-1.804,4.323c-0.537,4.431-0.549,9.785-0.031,14.377c0.223,1.975,0.682,3.259,1.543,4.316
		c0.538,0.66,1.464,1.221,2.292,1.388c0.583,0.117,3.492,0.28,7.731,0.434c0.631,0.021,2.303,0.061,3.715,0.087
		c2.943,0.052,8.355,0.021,11.448-0.065c2.081-0.059,5.875-0.213,6.585-0.268c0.199-0.016,0.662-0.045,1.027-0.065
		c1.228-0.069,2.009-0.327,2.742-0.903c0.95-0.746,1.685-2.124,1.995-3.741c0.295-1.529,0.492-4.254,0.53-7.347
		C52.023,30.3,51.979,28.906,51.792,26.666L51.792,26.666z M26.824,37.748V26.253L37.176,32L26.824,37.748L26.824,37.748z"/>
</g>
<g id="Layer_1">
</g>
</svg>
