<svg xmlns="http://www.w3.org/2000/svg" width="512" height="512" viewBox="0 0 512 512"><path d="M417 233v-46h-32v46h-47v32h47v47h32v-47h46v-32zm-237-3v52.124s50.773-.056 71.342-.056c-11.132 33.885-28.353 52.34-70.973 52.34-43.135 0-76.76-35.108-76.76-78.41 0-43.29 33.717-78.395 76.848-78.395 22.8 0 37.57 8.045 51.067 19.262 10.815-10.853 9.93-12.4 37.432-38.483-23.344-21.342-54.39-34.35-88.473-34.35C107.872 124.032 49 183.117 49 256c0 72.883 58.875 132.03 131.487 132.03C289.035 388.03 315.57 293 306.78 230H180z"/></svg>