<?xml version="1.0" encoding="iso-8859-1"?>
<!-- Generator: Adobe Illustrator 18.0.0, SVG Export Plug-In . SVG Version: 6.00 Build 0)  -->
<!DOCTYPE svg PUBLIC "-//W3C//DTD SVG 1.1//EN" "http://www.w3.org/Graphics/SVG/1.1/DTD/svg11.dtd">
<svg version="1.1" id="sz-pinterest-alt" xmlns="http://www.w3.org/2000/svg" xmlns:xlink="http://www.w3.org/1999/xlink" x="0px"
	 y="0px" width="512px" height="512px" viewBox="0 0 512 512" style="enable-background:new 0 0 512 512;" xml:space="preserve">
<g>
	<g>
		<path d="M360.404,75.905C328.538,57.307,293.734,48.009,256,48.009c-37.739,0-72.542,9.298-104.409,27.896
			c-31.866,18.6-57.099,43.833-75.695,75.695C57.298,183.47,48,218.273,48,256.009c0,42.069,11.46,80.257,34.394,114.558
			c22.929,34.312,52.989,59.676,90.188,76.103c-0.725-19.319,0.449-35.295,3.521-47.933l26.811-113.208
			c-4.514-8.845-6.77-19.857-6.77-33.041c0-15.346,3.882-28.169,11.645-38.456c7.759-10.295,17.241-15.443,28.437-15.443
			c9.025,0,15.979,2.976,20.855,8.941c4.875,5.956,7.315,13.452,7.315,22.477c0,5.601-1.042,12.419-3.113,20.45
			c-2.079,8.036-4.787,17.332-8.124,27.896c-3.341,10.56-5.732,19-7.179,25.321c-2.532,11.011-0.453,20.445,6.229,28.301
			c6.677,7.855,15.527,11.78,26.542,11.78c19.321,0,35.164-10.739,47.534-32.226c12.367-21.487,18.551-47.577,18.551-78.275
			c0-23.65-7.626-42.883-22.884-57.688c-15.258-14.801-36.522-22.208-63.781-22.208c-30.518,0-55.21,9.799-74.073,29.383
			c-18.867,19.593-28.302,43.023-28.302,70.278c0,16.251,4.607,29.888,13.812,40.9c3.069,3.612,4.062,7.49,2.98,11.64
			c-0.365,1.086-1.085,3.793-2.167,8.123c-1.081,4.331-1.807,7.136-2.167,8.396c-1.447,5.782-4.875,7.588-10.295,5.417
			c-13.904-5.777-24.468-15.795-31.686-30.061c-7.222-14.261-10.832-30.78-10.832-49.559c0-12.098,1.939-24.196,5.82-36.293
			c3.882-12.098,9.926-23.786,18.147-35.076c8.212-11.276,18.054-21.259,29.523-29.923c11.465-8.669,25.413-15.614,41.845-20.859
			c16.428-5.231,34.126-7.851,53.085-7.851c25.638,0,48.66,5.688,69.061,17.06c20.401,11.377,35.977,26.095,46.72,44.149
			c10.739,18.054,16.116,37.37,16.116,57.961c0,27.083-4.698,51.459-14.084,73.128c-9.39,21.668-22.662,38.684-39.815,51.051
			c-17.158,12.365-36.658,18.551-58.502,18.551c-11.016,0-21.308-2.571-30.877-7.72c-9.575-5.147-16.164-11.24-19.773-18.283
			c-8.124,31.954-12.999,51.012-14.625,57.144c-3.433,12.823-10.476,27.624-21.127,44.417c19.32,5.777,39.001,8.664,59.042,8.664
			c37.735,0,72.538-9.297,104.404-27.891c31.866-18.6,57.099-43.833,75.699-75.703C454.697,328.529,464,293.731,464,255.991
			c0-37.739-9.303-72.537-27.897-104.408C417.507,119.738,392.27,94.505,360.404,75.905z"/>
	</g>
</g>
</svg>
