<svg xmlns="http://www.w3.org/2000/svg" width="512" height="512" viewBox="0 0 512 512"><path d="M429.82 82.2C420.345 72.738 409 68 395.78 68H116.23C103 68 91.67 72.737 82.21 82.2c-9.473 9.466-14.205 20.802-14.205 34.02v279.55c0 13.21 4.732 24.574 14.205 34.03 9.46 9.473 20.81 14.2 34.02 14.2h279.55c13.2 0 24.557-4.726 34.03-14.2 9.465-9.455 14.192-20.82 14.192-34.03V116.22c0-13.218-4.727-24.555-14.183-34.02zM203.01 203.49c14.76-14.28 32.52-21.42 53.243-21.42 20.888 0 38.715 7.14 53.485 21.42 14.77 14.28 22.142 31.54 22.142 51.77 0 20.25-7.37 37.507-22.142 51.772-14.77 14.283-32.588 21.444-53.485 21.444-20.723 0-38.472-7.16-53.243-21.444-14.775-14.274-22.15-31.523-22.15-51.773 0-20.23 7.376-37.49 22.15-51.77zm198.405 182.257c0 4.232-1.468 7.776-4.415 10.648-2.947 2.846-6.453 4.27-10.51 4.27h-261.7c-4.232 0-7.78-1.423-10.648-4.27-2.855-2.855-4.273-6.416-4.273-10.648v-158.64h34.504c-3.254 10.28-4.888 20.975-4.888 32.064 0 31.358 11.423 58.07 34.253 80.19 22.866 22.108 50.364 33.18 82.512 33.18 21.21 0 40.78-5.07 58.754-15.193 17.955-10.116 32.138-23.877 42.574-41.263 10.458-17.367 15.69-36.35 15.69-56.908 0-11.09-1.652-21.784-4.91-32.064h33.056V385.75zm0-218.61c0 4.733-1.624 8.73-4.91 12-3.26 3.262-7.253 4.892-11.98 4.892h-42.613c-4.718 0-8.72-1.63-11.98-4.896-3.266-3.268-4.892-7.266-4.892-11.998V126.75c0-4.567 1.625-8.523 4.893-11.874 3.26-3.342 7.262-5.026 11.98-5.026h42.612c4.727 0 8.72 1.684 11.98 5.026 3.285 3.35 4.91 7.308 4.91 11.874v40.386z"/></svg>