<?xml version="1.0" encoding="iso-8859-1"?>
<!-- Generator: Adobe Illustrator 18.0.0, SVG Export Plug-In . SVG Version: 6.00 Build 0)  -->
<!DOCTYPE svg PUBLIC "-//W3C//DTD SVG 1.1//EN" "http://www.w3.org/Graphics/SVG/1.1/DTD/svg11.dtd">
<svg version="1.1" id="sz-vimeo" xmlns="http://www.w3.org/2000/svg" xmlns:xlink="http://www.w3.org/1999/xlink" x="0px" y="0px"
	 width="512px" height="512px" viewBox="0 0 512 512" style="enable-background:new 0 0 512 512;" xml:space="preserve">
<title>Layer 1</title>
<path d="M436.82,168.82c-1.69,36.51-27.25,86.51-76.68,149.99c-51.12,66.29-94.38,99.43-129.77,99.43
	c-21.91,0-40.45-20.22-55.61-60.67l-30.34-111.23c-11.24-40.45-23.31-60.67-36.23-60.67c-2.81,0-12.64,5.9-29.49,17.7L61,180.62
	c18.54-16.29,36.8-32.58,54.77-48.87c24.72-21.35,43.26-32.58,55.61-33.71c29.21-2.81,47.19,17.13,53.93,59.83
	c7.3,46.06,12.36,74.71,15.17,85.95c8.43,38.2,17.7,57.3,27.81,57.3c7.86,0,19.66-12.36,35.39-37.08
	c15.73-24.72,24.16-43.54,25.28-56.46c2.25-21.35-6.18-32.02-25.28-32.02c-8.99,0-18.26,1.97-27.81,5.9
	c18.54-60.11,53.93-89.32,106.17-87.63C420.81,94.95,439.06,119.95,436.82,168.82L436.82,168.82z"/>
</svg>
