<?xml version="1.0" encoding="utf-8"?>
<!-- Generator: Adobe Illustrator 21.1.0, SVG Export Plug-In . SVG Version: 6.00 Build 0)  -->
<svg version="1.1" id="Capa_1" xmlns="http://www.w3.org/2000/svg" xmlns:xlink="http://www.w3.org/1999/xlink" x="0px" y="0px"
	 viewBox="0 0 512 512" style="enable-background:new 0 0 512 512;" xml:space="preserve">
<path d="M256.9,101.9c50.2,0,56.1,0.2,76,1.1c18.3,0.8,28.3,3.9,34.9,6.5c16.4,6.3,29.3,19.3,35.7,35.7c2.6,6.6,5.6,16.6,6.5,34.9
	c0.9,19.8,1.1,25.8,1.1,76s-0.2,56.1-1.1,76c-0.8,18.3-3.9,28.3-6.5,34.9c-6.3,16.4-19.3,29.3-35.7,35.7c-6.6,2.6-16.6,5.6-34.9,6.5
	c-19.8,0.9-25.8,1.1-76,1.1s-56.1-0.2-76-1.1c-18.3-0.8-28.3-3.9-34.9-6.5c-16.4-6.3-29.3-19.3-35.7-35.7
	c-2.6-6.6-5.6-16.6-6.5-34.9c-0.9-19.8-1.1-25.8-1.1-76s0.2-56.1,1.1-76c0.8-18.3,3.9-28.3,6.5-34.9c6.3-16.4,19.3-29.3,35.7-35.7
	c6.6-2.6,16.6-5.6,34.9-6.5C200.7,102.1,206.7,101.9,256.9,101.9 M256.9,68c-51,0-57.5,0.2-77.5,1.1s-33.7,4.1-45.6,8.7
	c-25.3,9.8-45.2,29.7-55,55c-4.7,12-7.8,25.6-8.7,45.6S69,204.9,69,255.9s0.2,57.5,1.1,77.5s4.1,33.7,8.7,45.6
	c9.8,25.3,29.7,45.2,55,55c12,4.6,25.6,7.8,45.6,8.7s26.4,1.1,77.4,1.1s57.5-0.2,77.5-1.1s33.7-4.1,45.6-8.7
	c25.3-9.8,45.2-29.7,55-55c4.7-12,7.8-25.6,8.7-45.6s1.1-26.4,1.1-77.5s-0.2-57.4-1.1-77.5c-0.9-20.1-4.1-33.7-8.7-45.6
	c-9.8-25.3-29.7-45.2-55-55c-12-4.7-25.6-7.8-45.6-8.7S308,67.9,256.9,68L256.9,68z"/>
<path d="M256.9,159.4c-53.3,0-96.5,43.3-96.5,96.6s43.3,96.5,96.6,96.5s96.5-43.3,96.5-96.6S310.2,159.4,256.9,159.4L256.9,159.4z
	 M256.9,318.6c-34.6,0-62.6-28.1-62.6-62.7c0-34.6,28.1-62.6,62.7-62.6c34.6,0,62.6,28,62.6,62.6
	C319.6,290.5,291.6,318.6,256.9,318.6C257,318.6,256.9,318.6,256.9,318.6z"/>
<circle cx="357.3" cy="155.6" r="22.6"/>
</svg>
